<svg xmlns="http://www.w3.org/2000/svg" viewBox="0 0 110.89 21.03"><defs><style>.\39 fb81b04-8cef-4848-8027-bcc575f47ccf{fill:#93d500;}.f7289bca-eb1d-476a-ab73-c0f721ca2a6e{fill:#fff;}</style></defs><title>sinergis_w</title><g id="ba3a9603-db61-4c72-84e5-4ef69a9ede3f" data-name="Layer 2"><g id="0c674698-3476-40ed-9807-352f8b6fe3cd" data-name="Layer 1"><path class="9fb81b04-8cef-4848-8027-bcc575f47ccf" d="M57.4,16.8l-1.77-.69a.12.12,0,0,0-.16,0,9.14,9.14,0,0,1-1.95,1.61,9,9,0,0,1-4.4,1.37,8.09,8.09,0,0,1-1.39-.06,7.51,7.51,0,0,1-1.33-.29,8.55,8.55,0,0,1-3.28-1.9,9.87,9.87,0,0,1-.88-.94,9,9,0,0,1-.72-1.06c-.08-.14-.16-.28-.23-.42s-.22-.44-.31-.67-.15-.38-.22-.57a5.12,5.12,0,0,1-.15-.56c-.06-.22-.12-.44-.16-.67h0a8.54,8.54,0,0,1-.15-1.25,7.35,7.35,0,0,1,.16-1.81A8.41,8.41,0,0,1,41.63,6,9.71,9.71,0,0,1,44.9,3a7.75,7.75,0,0,1,3.9-1.1A8,8,0,0,1,50.26,2a6.49,6.49,0,0,1,2.1.78,7.06,7.06,0,0,1,1.92,1.73,6,6,0,0,1,1.33,3.4,7.23,7.23,0,0,1,0,1.23,6.8,6.8,0,0,1-.25,1.19,7,7,0,0,1-1.58,2.75l-.17.18h0a10.58,10.58,0,0,1-.93.83,7.21,7.21,0,0,1-2.11,1.23,4.08,4.08,0,0,1-1,.25h-.34l-.34,0a3.4,3.4,0,0,1-.46-.06,3.13,3.13,0,0,1-.44-.1,5.29,5.29,0,0,1-1.77-.94c-.17-.14-.34-.3-.5-.46l0,0L54.47,6.4l-.32-.35A11.7,11.7,0,0,0,53,5a8.31,8.31,0,0,0-2.79-1.47,6.08,6.08,0,0,0-.94-.21,4.79,4.79,0,0,0-1.07,0,6.58,6.58,0,0,0-1.24.22A7.49,7.49,0,0,0,43.22,6a6.6,6.6,0,0,0-1.48,4,6.67,6.67,0,0,0,.07,1.41,7,7,0,0,0,.25,1.12h0a2.83,2.83,0,0,0,.11.31,6.1,6.1,0,0,0,.44,1,7.26,7.26,0,0,0,1.23,1.68,9,9,0,0,0,.79.72,7.07,7.07,0,0,0,4.15,1.55,6.6,6.6,0,0,0,1.6-.1,6.25,6.25,0,0,0,2.13-.8A9.59,9.59,0,0,0,53.73,16a10.79,10.79,0,0,0,1.67-1.64c.21-.26.4-.52.58-.79l.13-.21a9,9,0,0,0,.48-.86h0c.1-.23.19-.45.27-.69a8.45,8.45,0,0,0,.47-2.54c0-.38,0-.76,0-1.14a12,12,0,0,0-.13-1.33A7.87,7.87,0,0,0,56.62,5a8.2,8.2,0,0,0-2.85-3.48A8.53,8.53,0,0,0,49.18,0a7.58,7.58,0,0,0-1.43.06,10.06,10.06,0,0,0-1.12.19,10.22,10.22,0,0,0-3.54,1.56A10.86,10.86,0,0,0,40.7,4a10.54,10.54,0,0,0-1.8,3.45,10.27,10.27,0,0,0-.44,2.39,7.44,7.44,0,0,0,0,1.25v0h0c0,.35.07.7.13,1a10.23,10.23,0,0,0,.61,2.18A12.16,12.16,0,0,0,40,15.85a10.65,10.65,0,0,0,3.37,3.51,9.76,9.76,0,0,0,5,1.66,10.18,10.18,0,0,0,1.91-.08,11.78,11.78,0,0,0,1.16-.21,10.79,10.79,0,0,0,1.4-.42,9.56,9.56,0,0,0,1.34-.62,11.91,11.91,0,0,0,3-2.47l.34-.39Zm-12.71-9a5.17,5.17,0,0,1,2.85-2.07A4.47,4.47,0,0,1,49,5.58a4.2,4.2,0,0,1,2.27.76l.06,0-6.81,5.82c-.09-.24-.17-.47-.24-.7A4.86,4.86,0,0,1,44,9.82,3.78,3.78,0,0,1,44.69,7.82Z"/><path class="f7289bca-eb1d-476a-ab73-c0f721ca2a6e" d="M11.86,5.51a4,4,0,0,0-.8-.67,6.67,6.67,0,0,0-1.13-.59,7.84,7.84,0,0,0-1.37-.43A7.06,7.06,0,0,0,7,3.66a4.85,4.85,0,0,0-3,.78A2.58,2.58,0,0,0,3,6.57a2.42,2.42,0,0,0,.27,1.2,2.38,2.38,0,0,0,.87.82,6.9,6.9,0,0,0,1.47.59c.58.16,1.27.34,2.08.52a21,21,0,0,1,2.49.69,7.12,7.12,0,0,1,1.91,1,3.92,3.92,0,0,1,1.2,1.4,4.45,4.45,0,0,1,.41,2,4.6,4.6,0,0,1-.5,2.22,4.33,4.33,0,0,1-1.36,1.55,5.9,5.9,0,0,1-2,.91,10.82,10.82,0,0,1-2.55.29,12,12,0,0,1-3.9-.64A10.92,10.92,0,0,1,0,17.25l1.08-1.91a6,6,0,0,0,1,.86A8.94,8.94,0,0,0,3.57,17a10.34,10.34,0,0,0,1.76.55,9,9,0,0,0,2,.21,5.44,5.44,0,0,0,3-.67,2.24,2.24,0,0,0,1.06-2A2.31,2.31,0,0,0,11,13.75a3,3,0,0,0-1-.89,7.77,7.77,0,0,0-1.62-.66c-.64-.2-1.37-.39-2.19-.59a19.7,19.7,0,0,1-2.38-.71A6.45,6.45,0,0,1,2.07,10,3.3,3.3,0,0,1,1,8.72a4.13,4.13,0,0,1-.35-1.8,5.22,5.22,0,0,1,.47-2.26A4.74,4.74,0,0,1,2.48,3a6,6,0,0,1,2-1,9.49,9.49,0,0,1,2.56-.34,9.07,9.07,0,0,1,5.84,2Z"/><path class="f7289bca-eb1d-476a-ab73-c0f721ca2a6e" d="M16.27,19.58V1.8h2.26V19.58Z"/><path class="f7289bca-eb1d-476a-ab73-c0f721ca2a6e" d="M24.59,6V19.58H22.34V1.78h1.75l11,13.86V1.8h2.26V19.58h-1.9Z"/><path class="f7289bca-eb1d-476a-ab73-c0f721ca2a6e" d="M58.72,19.58V1.78h7.62a4.8,4.8,0,0,1,2.17.49,5.43,5.43,0,0,1,1.7,1.3A6.39,6.39,0,0,1,71.33,5.4a5.77,5.77,0,0,1,.4,2.07,5.92,5.92,0,0,1-.27,1.79,5.3,5.3,0,0,1-.75,1.57A4.81,4.81,0,0,1,69.53,12a4.47,4.47,0,0,1-1.54.73l4.31,6.82H69.75l-4.06-6.39H61v6.39ZM61,11.18h5.39a2.67,2.67,0,0,0,1.27-.3,3,3,0,0,0,1-.81,3.92,3.92,0,0,0,.63-1.2,4.37,4.37,0,0,0,.23-1.4,3.78,3.78,0,0,0-.27-1.42,4,4,0,0,0-.7-1.17,3.11,3.11,0,0,0-1-.81,2.79,2.79,0,0,0-1.24-.29H61Z"/><path class="f7289bca-eb1d-476a-ab73-c0f721ca2a6e" d="M87.52,17.17a7.2,7.2,0,0,1-5.41,2.54,7.1,7.1,0,0,1-3.3-.78,8.73,8.73,0,0,1-2.62-2.05A9.48,9.48,0,0,1,74.45,14a9.07,9.07,0,0,1-.64-3.36,9.56,9.56,0,0,1,.62-3.42,9.34,9.34,0,0,1,1.74-2.86,8.15,8.15,0,0,1,2.63-2,8.42,8.42,0,0,1,7.56.35A7.14,7.14,0,0,1,88.9,5.54l-1.73,1.2A5.36,5.36,0,0,0,85,4.44a6,6,0,0,0-3-.76,5.17,5.17,0,0,0-2.46.59,6,6,0,0,0-1.88,1.56,7,7,0,0,0-1.2,2.23,8,8,0,0,0-.43,2.62,7.51,7.51,0,0,0,.48,2.69,7.32,7.32,0,0,0,1.3,2.24,5.9,5.9,0,0,0,2,1.51,5.47,5.47,0,0,0,2.45.55,6.74,6.74,0,0,0,5.24-2.8V12.41H83.69V10.7h5.74v8.88H87.52Z"/><path class="f7289bca-eb1d-476a-ab73-c0f721ca2a6e" d="M92.46,19.58V1.8h2.26V19.58Z"/><path class="f7289bca-eb1d-476a-ab73-c0f721ca2a6e" d="M109,5.51a3.72,3.72,0,0,0-.8-.67,6.31,6.31,0,0,0-1.13-.59,7.73,7.73,0,0,0-1.36-.43,7.15,7.15,0,0,0-1.55-.16,4.81,4.81,0,0,0-3,.78,2.56,2.56,0,0,0-1,2.13,2.32,2.32,0,0,0,.28,1.2,2.27,2.27,0,0,0,.86.82,7.36,7.36,0,0,0,1.47.59c.59.16,1.28.34,2.08.52a21.73,21.73,0,0,1,2.5.69,7.21,7.21,0,0,1,1.9,1,3.74,3.74,0,0,1,1.2,1.4,4.45,4.45,0,0,1,.42,2,4.72,4.72,0,0,1-.5,2.22A4.36,4.36,0,0,1,109,18.56a5.94,5.94,0,0,1-2,.91,10.9,10.9,0,0,1-2.56.29,12,12,0,0,1-3.9-.64,11,11,0,0,1-3.35-1.87l1.08-1.91a6.34,6.34,0,0,0,1,.86,9.06,9.06,0,0,0,1.46.76,10.23,10.23,0,0,0,1.75.55,9,9,0,0,0,2,.21,5.48,5.48,0,0,0,3-.67,2.26,2.26,0,0,0,1-2,2.23,2.23,0,0,0-.34-1.27,2.79,2.79,0,0,0-1-.89,7.45,7.45,0,0,0-1.61-.66c-.65-.2-1.38-.39-2.2-.59A20.85,20.85,0,0,1,101,10.9a6.45,6.45,0,0,1-1.72-.9,3.39,3.39,0,0,1-1-1.28,4.28,4.28,0,0,1-.35-1.8,5.08,5.08,0,0,1,.48-2.26A4.74,4.74,0,0,1,99.66,3a5.79,5.79,0,0,1,2-1,9.41,9.41,0,0,1,2.55-.34,9.06,9.06,0,0,1,3.26.56,9.27,9.27,0,0,1,2.59,1.47Z"/></g></g></svg>